Coordinates
version=1
nRows=35
nColumns=34
inDegrees=no

Units are S.I. units (second, meters, Newtons, ...)
If the header above contains a line with 'inDegrees', this indicates whether rotational values are in degrees (yes) or radians (no).

endheader
time	pelvis_tilt	pelvis_list	pelvis_rotation	pelvis_tx	pelvis_ty	pelvis_tz	hip_flexion_r	hip_adduction_r	hip_rotation_r	knee_angle_r	ankle_angle_r	subtalar_angle_r	mtp_angle_r	hip_flexion_l	hip_adduction_l	hip_rotation_l	knee_angle_l	ankle_angle_l	subtalar_angle_l	mtp_angle_l	lumbar_extension	lumbar_bending	lumbar_rotation	arm_flex_r	arm_add_r	arm_rot_r	elbow_flex_r	pro_sup_r	arm_flex_l	arm_add_l	arm_rot_l	elbow_flex_l	pro_sup_l
40.02	0.409509	0.0893886	3.02548	-0.369222	0.710621	0.936868	0.355853	-0.556523	-0.50884	0.867678	0.56109	0.0414345	-0.133286	1.43703	-0.808102	-0.315179	1.40754	0.209431	-0.112792	-0.133286	0.217376	0.061239	0.185577	-1.86427	-1.1088	-2.41032	0.626976	1.50611	1.22774	-0.603174	-0.0544658	1.28691	2.09
40.04	0.41012	0.0914083	3.01889	-0.374521	0.712786	0.945436	0.318572	-0.545278	-0.521727	0.793958	0.5395	0.0693578	-0.133286	1.42448	-0.804604	-0.321859	1.41444	0.227662	-0.116772	-0.133286	0.216857	0.0674585	0.185699	-1.87174	-1.11005	-2.41849	0.624957	1.50595	1.23426	-0.601214	-0.0566203	1.23654	2.09
40.06	0.409985	0.0940008	3.01304	-0.379691	0.714966	0.953662	0.279676	-0.532808	-0.535523	0.719343	0.517957	0.0972749	-0.133286	1.41199	-0.801107	-0.327647	1.42089	0.245173	-0.120227	-0.133286	0.215694	0.0737718	0.185489	-1.87782	-1.11098	-2.42548	0.622729	1.50611	1.24213	-0.599166	-0.057138	1.1859	2.09
40.08	0.408852	0.0977555	3.00861	-0.384614	0.717074	0.961134	0.238309	-0.51771	-0.55071	0.643363	0.496396	0.124667	-0.133286	1.40058	-0.797705	-0.331145	1.42668	0.261097	-0.122926	-0.133286	0.213736	0.0803288	0.184716	-1.88112	-1.11143	-2.42997	0.620122	1.50667	1.25271	-0.596726	-0.0544962	1.13467	2.09
40.1	0.406997	0.102914	3.00592	-0.389193	0.718926	0.967531	0.194916	-0.49931	-0.567235	0.566571	0.47488	0.151182	-0.133286	1.39172	-0.794559	-0.331165	1.43202	0.274808	-0.125024	-0.133286	0.211206	0.0871366	0.183423	-1.88081	-1.11153	-2.43089	0.617169	1.50737	1.26679	-0.593536	-0.0479585	1.08282	2.09
40.12	0.404695	0.109273	3.00505	-0.39332	0.72033	0.972696	0.150735	-0.478037	-0.584753	0.490653	0.453817	0.176767	-0.133286	1.38632	-0.791727	-0.327286	1.4373	0.286083	-0.126803	-0.133286	0.20815	0.0938663	0.181865	-1.87661	-1.11161	-2.4276	0.614143	1.50777	1.2846	-0.589416	-0.0373678	1.03059	2.09
40.14	0.401876	0.11625	3.00605	-0.396885	0.721174	0.976668	0.107221	-0.455286	-0.602679	0.41825	0.43397	0.200606	-0.133286	1.38416	-0.788947	-0.320101	1.44286	0.29515	-0.128404	-0.133286	0.204218	0.09975	0.180298	-1.86872	-1.11197	-2.41996	0.611394	1.50744	1.30602	-0.584463	-0.0226907	0.978679	2.09
40.16	0.39821	0.122974	3.00901	-0.399832	0.721458	0.979697	0.0658362	-0.433141	-0.619862	0.352561	0.416302	0.220336	-0.133286	1.38386	-0.785528	-0.311102	1.44882	0.302701	-0.129846	-0.133286	0.198862	0.103595	0.178853	-1.85773	-1.1126	-2.4083	0.609203	1.50599	1.33086	-0.578938	-0.00379751	0.928301	2.09
40.18	0.393439	0.12834	3.01398	-0.402231	0.721253	0.982238	0.0282268	-0.414238	-0.63414	0.297105	0.401603	0.232223	-0.133286	1.38343	-0.780247	-0.302254	1.45524	0.30989	-0.131549	-0.133286	0.191714	0.103879	0.177537	-1.84435	-1.11324	-2.39313	0.607777	1.50307	1.35911	-0.573109	0.0197921	0.880928	2.09
40.1999	0.387668	0.131228	3.02089	-0.404346	0.720699	0.984963	-0.003593	-0.401534	-0.642457	0.255566	0.389542	0.231795	-0.133286	1.38083	-0.771283	-0.295417	1.46201	0.318291	-0.134829	-0.133286	0.182881	0.0991278	0.176237	-1.82908	-1.11352	-2.37464	0.607266	1.49826	1.39078	-0.567158	0.0489107	0.837606	2.09
40.2199	0.381346	0.131148	3.02958	-0.406703	0.720084	0.988759	-0.0278417	-0.397285	-0.64197	0.230657	0.37704	0.215244	-0.133286	1.37427	-0.756658	-0.291781	1.46879	0.329706	-0.141315	-0.133286	0.172929	0.0888168	0.174651	-1.81228	-1.1132	-2.35255	0.607669	1.49108	1.4253	-0.561144	0.0842186	0.798551	2.09
40.2399	0.375111	0.128802	3.03972	-0.410064	0.719923	0.994664	-0.0436468	-0.401844	-0.630819	0.222567	0.357012	0.180621	-0.133286	1.36236	-0.735087	-0.291694	1.47476	0.345688	-0.151879	-0.133286	0.162677	0.074111	0.172384	-1.79448	-1.11225	-2.3264	0.60868	1.48117	1.46127	-0.554989	0.125409	0.763352	2.09
40.2599	0.369969	0.125702	3.05062	-0.415192	0.720933	1.00372	-0.0500305	-0.414091	-0.60836	0.229767	0.319315	0.128205	-0.133286	1.34417	-0.706246	-0.295288	1.4782	0.366819	-0.166484	-0.133286	0.153259	0.0575224	0.169215	-1.77653	-1.11098	-2.29627	0.609674	1.4688	1.49652	-0.548542	0.170649	0.731627	2.09
40.2799	0.367038	0.123643	3.06158	-0.422609	0.723888	1.01671	-0.0457394	-0.431828	-0.575437	0.249749	0.253664	0.0595275	-0.133286	1.31926	-0.670678	-0.302704	1.4765	0.392284	-0.184183	-0.133286	0.145807	0.0419746	0.165131	-1.75925	-1.10989	-2.26297	0.609882	1.45472	1.52882	-0.541559	0.217097	0.703237	2.09
40.2999	0.36699	0.124165	3.07218	-0.432461	0.729359	1.03383	-0.0304539	-0.451726	-0.535104	0.278488	0.153446	-0.0231974	-0.133286	1.28767	-0.629603	-0.313716	1.46684	0.420078	-0.203355	-0.133286	0.141006	0.0297106	0.160265	-1.74307	-1.10948	-2.22769	0.608569	1.44004	1.55686	-0.533893	0.262332	0.678148	2.09
40.3199	0.369503	0.128039	3.08212	-0.444494	0.737497	1.05452	-0.00582389	-0.470026	-0.492522	0.310658	0.0192042	-0.115389	-0.133286	1.24975	-0.584792	-0.327402	1.44719	0.447706	-0.222562	-0.133286	0.138696	0.0216679	0.155031	-1.72856	-1.11032	-2.19238	0.60538	1.42629	1.58065	-0.525802	0.305332	0.656354	2.09
40.3399	0.373082	0.135098	3.09112	-0.458118	0.74795	1.07763	0.0249338	-0.483925	-0.452828	0.342071	-0.13911	-0.208148	-0.133286	1.20596	-0.538423	-0.342419	1.41723	0.472942	-0.240977	-0.133286	0.137773	0.0176372	0.150059	-1.71728	-1.11291	-2.16008	0.600774	1.41418	1.60113	-0.517996	0.346607	0.637487	2.09
40.3599	0.37548	0.144358	3.09909	-0.472516	0.759952	1.1017	0.0586659	-0.492177	-0.417269	0.372481	-0.3028	-0.290872	-0.133286	1.15679	-0.492745	-0.35782	1.37836	0.494328	-0.25767	-0.133286	0.136547	0.0166813	0.145714	-1.71113	-1.11766	-2.13517	0.595739	1.40593	1.61941	-0.51131	0.38733	0.620547	2.09
40.3799	0.374266	0.1542	3.10668	-0.486826	0.77256	1.12536	0.0935125	-0.495015	-0.382399	0.406511	-0.449455	-0.355288	-0.133286	1.10258	-0.449447	-0.373611	1.33318	0.51136	-0.270905	-0.133286	0.133176	0.0173062	0.141624	-1.71175	-1.12458	-2.12178	0.591456	1.4037	1.63604	-0.506392	0.428105	0.604678	2.09
40.3999	0.367384	0.162854	3.11498	-0.500353	0.784895	1.1475	0.129031	-0.493555	-0.343482	0.45131	-0.561155	-0.398943	-0.133286	1.04371	-0.409423	-0.390187	1.28494	0.524335	-0.278893	-0.133286	0.126094	0.0178807	0.136867	-1.72062	-1.13332	-2.12249	0.589014	1.40836	1.65087	-0.503644	0.468578	0.589807	2.09
40.4199	0.353704	0.169144	3.12457	-0.512672	0.796281	1.16731	0.165735	-0.48886	-0.298919	0.512451	-0.630391	-0.42628	-0.133286	0.981274	-0.373386	-0.40721	1.23726	0.534051	-0.281042	-0.133286	0.114369	0.0173913	0.130629	-1.73855	-1.14374	-2.13785	0.589389	1.41922	1.66367	-0.503393	0.507803	0.576746	2.09
40.4399	0.333399	0.17267	3.13533	-0.52358	0.806268	1.18425	0.204658	-0.481568	-0.250906	0.591707	-0.658967	-0.445163	-0.133286	0.917479	-0.341931	-0.423242	1.19369	0.541415	-0.278514	-0.133286	0.0979403	0.0155451	0.122492	-1.76472	-1.15606	-2.16607	0.593317	1.43444	1.67451	-0.505863	0.544707	0.5669	2.09
40.4599	0.30776	0.173471	3.14699	-0.532995	0.814606	1.19815	0.24684	-0.472083	-0.202422	0.687319	-0.652356	-0.46094	-0.133286	0.855252	-0.314703	-0.43624	1.15682	0.547064	-0.274522	-0.133286	0.0774815	0.0125308	0.112397	-1.7966	-1.17049	-2.20368	0.601063	1.45165	1.68353	-0.511089	0.578213	0.562041	2.09
40.4799	0.278679	0.171869	3.15941	-0.540874	0.821219	1.20914	0.292653	-0.460743	-0.155627	0.794724	-0.614674	-0.473062	-0.133286	0.797369	-0.290569	-0.444463	1.12778	0.551387	-0.272849	-0.133286	0.0541088	0.00914117	0.100542	-1.83061	-1.18709	-2.24676	0.612546	1.46873	1.69042	-0.519245	0.607044	0.564092	2.09
40.4999	0.248173	0.168441	3.17231	-0.547203	0.826146	1.21764	0.340968	-0.447546	-0.111425	0.906045	-0.547282	-0.47658	-0.133286	0.745904	-0.268597	-0.447228	1.10671	0.554822	-0.275698	-0.133286	0.0291839	0.00675118	0.0871336	-1.86275	-1.20619	-2.29205	0.627676	1.48465	1.69442	-0.531266	0.63015	0.57486	2.09
40.5199	0.218102	0.163811	3.18505	-0.552032	0.829472	1.22415	0.388651	-0.432084	-0.069584	1.00976	-0.451981	-0.466879	-0.133286	0.702028	-0.248641	-0.445342	1.09332	0.558034	-0.282759	-0.133286	0.00422284	0.00670524	0.0721003	-1.88985	-1.22882	-2.33813	0.646367	1.49968	1.69472	-0.549084	0.647363	0.595902	2.09
40.5398	0.190095	0.158387	3.19677	-0.555513	0.831244	1.2291	0.431171	-0.414185	-0.0291212	1.09343	-0.336704	-0.443836	-0.133286	0.666293	-0.231042	-0.440648	1.08733	0.561832	-0.292172	-0.133286	-0.0191259	0.00963781	0.0549199	-1.91272	-1.25656	-2.38811	0.668359	1.51494	1.69072	-0.5751	0.659311	0.62817	2.09001
40.5598	0.165311	0.15224	3.20658	-0.557885	0.831485	1.23279	0.46417	-0.394574	0.0110668	1.14888	-0.217466	-0.412817	-0.133286	0.638859	-0.215842	-0.434713	1.08847	0.56681	-0.303033	-0.133286	-0.0394784	0.0152818	0.0348602	-1.94091	-1.29083	-2.45356	0.693147	1.53172	1.68209	-0.611428	0.66675	0.671638	2.09002
40.5798	0.144182	0.145112	3.21338	-0.559409	0.830291	1.23524	0.485024	-0.374902	0.0514276	1.17586	-0.111588	-0.381385	-0.133286	0.619147	-0.202877	-0.428791	1.09619	0.573175	-0.315567	-0.133286	-0.0561355	0.0225862	0.0113932	-1.99783	-1.33225	-2.55848	0.719901	1.55066	1.66875	-0.659497	0.669985	0.725024	2.09002
40.5998	0.12668	0.136503	3.21598	-0.56033	0.827859	1.23629	0.493587	-0.357152	0.0916642	1.18094	-0.0289847	-0.355257	-0.133286	0.605937	-0.192119	-0.424293	1.10951	0.58083	-0.329871	-0.133286	-0.0688388	0.030038	-0.0155705	-2.12366	-1.37914	-2.74037	0.747385	1.56792	1.65076	-0.719493	0.668636	0.785501	2.09002
40.6198	0.1128	0.125996	3.21351	-0.560858	0.82442	1.23567	0.491816	-0.342941	0.13102	1.17267	0.0308757	-0.336262	-0.133286	0.598046	-0.183856	-0.422662	1.12725	0.589559	-0.345207	-0.133286	-0.0772641	0.0362607	-0.0455443	-2.36955	-1.42612	-3.04538	0.774185	1.57641	1.6281	-0.789546	0.661709	0.848555	2.09001
40.6398	0.102531	0.113633	3.20567	-0.561156	0.820202	1.2331	0.482779	-0.332891	0.168737	1.15785	0.076606	-0.322992	-0.133286	0.594643	-0.178791	-0.424749	1.14833	0.599035	-0.360564	-0.133286	-0.0811984	0.0405538	-0.0774339	-2.77891	-1.46416	-3.51235	0.798844	1.57137	1.6007	-0.865821	0.648086	0.908849	2.08997
40.6598	0.0956249	0.0998633	3.19273	-0.561295	0.815442	1.22835	0.469949	-0.326498	0.20475	1.14079	0.119601	-0.31144	-0.133286	0.595121	-0.177695	-0.430446	1.1719	0.608569	-0.375572	-0.133286	-0.0809701	0.0429486	-0.109857	-3.35377	-1.48217	-4.13949	0.819408	1.55023	1.56831	-0.943661	0.626997	0.96163	2.08989
40.6798	0.0915977	0.0852483	3.17558	-0.561228	0.810428	1.22133	0.456641	-0.322755	0.239399	1.12394	0.16831	-0.296294	-0.133286	0.598897	-0.180857	-0.43878	1.1969	0.617045	-0.390608	-0.133286	-0.0774108	0.0440106	-0.141782	-4.00374	-1.47125	-4.83353	0.833148	1.51243	1.53058	-1.01906	0.59855	1.00383	2.08977
40.6998	0.0898742	0.0703166	3.15556	-0.560812	0.805498	1.21207	0.445642	-0.320909	0.271863	1.10881	0.225454	-0.273841	-0.133286	0.605268	-0.188148	-0.448503	1.22187	0.623268	-0.405855	-0.133286	-0.0715145	0.0446027	-0.172655	-4.52508	-1.43246	-5.38956	0.837489	1.45991	1.48732	-1.08936	0.563859	1.03442	2.08961
